<svg width="16" height="16" viewBox="0 0 16 16" fill="none" xmlns="http://www.w3.org/2000/svg">
<g id="add_circle_outline" clip-path="url(#clip0_121_1281)">
<path id="Vector" d="M8.00001 4.66671C7.63334 4.66671 7.33334 4.96671 7.33334 5.33337V7.33337H5.33334C4.96668 7.33337 4.66668 7.63337 4.66668 8.00004C4.66668 8.36671 4.96668 8.66671 5.33334 8.66671H7.33334V10.6667C7.33334 11.0334 7.63334 11.3334 8.00001 11.3334C8.36668 11.3334 8.66668 11.0334 8.66668 10.6667V8.66671H10.6667C11.0333 8.66671 11.3333 8.36671 11.3333 8.00004C11.3333 7.63337 11.0333 7.33337 10.6667 7.33337H8.66668V5.33337C8.66668 4.96671 8.36668 4.66671 8.00001 4.66671ZM8.00001 1.33337C4.32001 1.33337 1.33334 4.32004 1.33334 8.00004C1.33334 11.68 4.32001 14.6667 8.00001 14.6667C11.68 14.6667 14.6667 11.68 14.6667 8.00004C14.6667 4.32004 11.68 1.33337 8.00001 1.33337ZM8.00001 13.3334C5.06001 13.3334 2.66668 10.94 2.66668 8.00004C2.66668 5.06004 5.06001 2.66671 8.00001 2.66671C10.94 2.66671 13.3333 5.06004 13.3333 8.00004C13.3333 10.94 10.94 13.3334 8.00001 13.3334Z" fill="#9873FF"/>
</g>
<defs>
<clipPath id="clip0_121_1281">
<rect width="16" height="16" fill="white"/>
</clipPath>
</defs>
</svg>
